<?xml version="1.0" encoding="UTF-8" standalone="no"?>
<!-- Created with Inkscape (http://www.inkscape.org/) -->

<svg
   width="500"
   height="500"
   viewBox="0 0 500 500"
   version="1.1"
   id="svg5"
   xml:space="preserve"
   inkscape:version="1.2.2 (b0a8486541, 2022-12-01, custom)"
   sodipodi:docname="git-analyzer-logo.svg"
   inkscape:export-filename="git-analyzer-logo.svg"
   inkscape:export-xdpi="96"
   inkscape:export-ydpi="96"
   xmlns:inkscape="http://www.inkscape.org/namespaces/inkscape"
   xmlns:sodipodi="http://sodipodi.sourceforge.net/DTD/sodipodi-0.dtd"
   xmlns="http://www.w3.org/2000/svg"
   xmlns:svg="http://www.w3.org/2000/svg"><sodipodi:namedview
     id="namedview7"
     pagecolor="#ffffff"
     bordercolor="#000000"
     borderopacity="0.25"
     inkscape:showpageshadow="2"
     inkscape:pageopacity="0.0"
     inkscape:pagecheckerboard="0"
     inkscape:deskcolor="#d1d1d1"
     inkscape:document-units="mm"
     showgrid="false"
     inkscape:zoom="0.914906"
     inkscape:cx="132.25402"
     inkscape:cy="238.82235"
     inkscape:window-width="2486"
     inkscape:window-height="1376"
     inkscape:window-x="0"
     inkscape:window-y="0"
     inkscape:window-maximized="1"
     inkscape:current-layer="layer1" /><defs
     id="defs2"><clipPath
       id="a"><path
         d="M159 .79h25V69h-25Zm0 0"
         id="path2758" /></clipPath><clipPath
       id="b"><path
         d="M183 9h35.371v60H183Zm0 0"
         id="path2761" /></clipPath><clipPath
       id="c"><path
         d="M0 .79h92V92H0Zm0 0"
         id="path2764" /></clipPath></defs><g
     inkscape:label="Loupe"
     inkscape:groupmode="layer"
     id="layer1"><rect
       style="opacity:1;fill:#001e27;fill-opacity:1;stroke:#000000;stroke-width:1.81417;stroke-linecap:round;stroke-linejoin:round;stroke-dasharray:none;stroke-opacity:1"
       id="rect2852"
       width="500"
       height="500"
       x="0"
       y="0"
       rx="75.904648"
       ry="75.904648" /><g
       id="g2848"
       transform="matrix(1.2148843,0,0,1.2148843,-64.316866,-53.721075)"><g
         id="g2740"
         transform="matrix(1.0350772,0.39932315,-0.39932315,1.0350772,70.697786,-38.17139)"><path
           id="path234"
           style="opacity:1;fill:none;stroke:#ffffff;stroke-width:18.0931;stroke-linecap:round;stroke-linejoin:round;stroke-dasharray:none;stroke-opacity:1"
           d="m 397.39654,163.38075 c 0,54.8102 -44.43248,99.24268 -99.24272,99.24268 -54.81023,0 -99.24271,-44.43248 -99.24271,-99.24268 0,-54.81023 44.43248,-99.242727 99.24271,-99.242727 54.81024,0 99.24272,44.432497 99.24272,99.242727 z"
           sodipodi:nodetypes="sssss" /><g
           id="g2734"
           transform="rotate(45,143.28739,349.07458)"
           style="fill:#ffffff;fill-opacity:1;stroke:#ffffff;stroke-opacity:1"><path
             id="path2526"
             style="opacity:1;fill:#ffffff;fill-opacity:1;stroke:#ffffff;stroke-width:1.81;stroke-linecap:round;stroke-linejoin:round;stroke-dasharray:none;stroke-opacity:1"
             d="m 113.34841,244.81737 v 81.13681 c 0,4.49603 3.64453,8.14127 8.14056,8.14127 4.49603,0 8.14056,-3.64524 8.14056,-8.14127 v -81.13681 z"
             sodipodi:nodetypes="cssscc" /><path
             id="rect2657"
             style="opacity:1;fill:#ffffff;fill-opacity:1;stroke:#ffffff;stroke-width:1.81417;stroke-linecap:round;stroke-linejoin:round;stroke-dasharray:none;stroke-opacity:1"
             d="m 129.62695,221.77734 c -5.51914,0.3148 -10.73799,0.34646 -16.27539,0 v 0 16.25586 h 16.27539 z"
             sodipodi:nodetypes="cccccc" /></g></g><g
         id="g2816"
         transform="matrix(0.83732961,0,0,0.83732953,21.053858,167.94056)"
         style="fill:#ffffff;fill-opacity:1;stroke:none;stroke-opacity:1"><path
           style="fill:#ffffff;fill-opacity:1;fill-rule:nonzero;stroke:none;stroke-opacity:1"
           d="m 99.48072,84.917589 c -4.785,0 -8.351,2.352 -8.351,8.008 0,4.261 2.347,7.222001 8.093,7.222001 4.871,0 8.18,-2.867001 8.18,-7.398001 0,-5.133 -2.961,-7.832 -7.922,-7.832 z m -9.57,39.950001 c -1.133,1.39 -2.262,2.87 -2.262,4.612 0,3.48 4.434,4.524 10.527,4.524 5.051,0 11.926,-0.352 11.926,-5.043 0,-2.793 -3.308,-2.965 -7.488,-3.227 z m 25.761,-39.688001 c 1.563,2.004 3.22,4.789 3.22,8.793 0,9.656001 -7.571,15.316001 -18.536,15.316001 -2.789,0 -5.312,-0.348 -6.879,-0.785 l -2.87,4.613 8.526,0.52 c 15.059,0.96 23.934,1.398 23.934,12.968 0,10.008 -8.789,15.665 -23.934,15.665 -15.75,0 -21.757,-4.004 -21.757,-10.88 0,-3.917 1.742,-6 4.789,-8.878 -2.875,-1.211 -3.828,-3.387 -3.828,-5.739 0,-1.914 0.953,-3.656 2.523,-5.312 1.566,-1.652 3.305,-3.305 5.395,-5.219 -4.262,-2.09 -7.485,-6.617001 -7.485,-13.058001 0,-10.008 6.613,-16.88 19.93,-16.88 3.742,0 6.004,0.344 8.008,0.872 h 16.972 v 7.394 l -8.007,0.61"
           id="path2769" /><g
           clip-path="url(#a)"
           id="g2773"
           style="fill:#ffffff;fill-opacity:1;stroke:none;stroke-opacity:1"
           transform="translate(-31.39028,53.081589)"><path
             style="fill:#ffffff;fill-opacity:1;fill-rule:nonzero;stroke:none;stroke-opacity:1"
             d="m 170.379,16.281 c -4.961,0 -7.832,-2.87 -7.832,-7.836 0,-4.957 2.871,-7.656 7.832,-7.656 5.05,0 7.922,2.7 7.922,7.656 0,4.965 -2.871,7.836 -7.922,7.836 z M 159.152,68.586 V 61.71 l 4.438,-0.606 c 1.219,-0.175 1.394,-0.437 1.394,-1.746 V 33.773 c 0,-0.953 -0.261,-1.566 -1.132,-1.824 l -4.7,-1.656 0.957,-7.047 h 18.016 V 59.36 c 0,1.399 0.086,1.57 1.395,1.746 l 4.437,0.606 v 6.875 h -24.805"
             id="path2771" /></g><g
           clip-path="url(#b)"
           id="g2777"
           style="fill:#ffffff;fill-opacity:1;stroke:none;stroke-opacity:1"
           transform="translate(-31.39028,53.081589)"><path
             style="fill:#ffffff;fill-opacity:1;fill-rule:nonzero;stroke:none;stroke-opacity:1"
             d="m 218.371,65.21 c -3.742,1.825 -9.223,3.481 -14.187,3.481 -10.356,0 -14.27,-4.175 -14.27,-14.015 V 31.879 c 0,-0.524 0,-0.871 -0.7,-0.871 h -6.093 v -7.746 c 7.664,-0.871 10.707,-4.703 11.664,-14.188 h 8.27 v 12.36 c 0,0.609 0,0.87 0.695,0.87 h 12.27 v 8.704 h -12.965 v 20.797 c 0,5.136 1.218,7.136 5.918,7.136 2.437,0 4.96,-0.609 7.047,-1.39 l 2.351,7.66"
             id="path2775" /></g></g><g
         clip-path="url(#c)"
         id="g2781"
         transform="matrix(1.5880425,0,0,1.5880425,241.01837,176.32277)"><path
           style="fill:#f03c2e;fill-opacity:1;fill-rule:nonzero;stroke:none"
           d="M 89.422,42.371 49.629,2.582 a 5.868,5.868 0 0 0 -8.3,0 l -8.263,8.262 10.48,10.484 a 6.965,6.965 0 0 1 7.173,1.668 6.98,6.98 0 0 1 1.656,7.215 l 10.102,10.105 a 6.963,6.963 0 0 1 7.214,1.657 6.976,6.976 0 0 1 0,9.875 6.98,6.98 0 0 1 -9.879,0 6.987,6.987 0 0 1 -1.519,-7.594 l -9.422,-9.422 v 24.793 a 6.979,6.979 0 0 1 1.848,1.32 6.988,6.988 0 0 1 0,9.88 c -2.73,2.726 -7.153,2.726 -9.875,0 a 6.98,6.98 0 0 1 0,-9.88 6.893,6.893 0 0 1 2.285,-1.523 V 34.398 A 6.893,6.893 0 0 1 40.844,32.875 6.988,6.988 0 0 1 39.336,25.238 L 29.004,14.902 1.719,42.187 a 5.868,5.868 0 0 0 0,8.301 l 39.793,39.793 a 5.868,5.868 0 0 0 8.3,0 l 39.61,-39.605 a 5.873,5.873 0 0 0 0,-8.305"
           id="path2779" /></g></g></g></svg>
